# xmcd
#
# Track frame offsets: 
#        150
#        10769
#        20548
#        36119
#        50941
#        63395
#        80488
#        98555
#        112499
#        129170
#        141429
#        161409
#        174726
#        188935
#        207083
#
# Disc length: 3005 seconds
#
# Revision: 0
# Processed by: cddbd v1.5.1PL2 Copyright (c) Steve Scherf et al.
# Submitted via: ExactAudioCopy v0.95b3
#
DISCID=d20bbb0f
DTITLE=Diz Disley Johnny Silvo - Blues in the Backyard
DYEAR=1999
DGENRE=Blues
TTITLE0=San Francisco Bay Blues
TTITLE1=Down and Out Blues
TTITLE2=Easy Rider
TTITLE3=Backwater Blues
TTITLE4=Pallet on the Floor
TTITLE5=St Louis Blues
TTITLE6=Black and Blue
TTITLE7=Lonesome Road
TTITLE8=Careless Love
TTITLE9=When I've Been Drinking
TTITLE10=Frankie and Johnny
TTITLE11=Glory of Love
TTITLE12=Trouble in Mind
TTITLE13=Silvo's Blues
TTITLE14=Goin Home
EXTD=
EXTT0=
EXTT1=
EXTT2=
EXTT3=
EXTT4=
EXTT5=
EXTT6=
EXTT7=
EXTT8=
EXTT9=
EXTT10=
EXTT11=
EXTT12=
EXTT13=
EXTT14=
PLAYORDER=
